<?xml version="1.0" encoding="UTF-8"?>
<!-- Generator: Adobe Illustrator 26.2.1, SVG Export Plug-In . SVG Version: 6.00 Build 0)  -->
<svg version="1.1" id="Layer_1" xmlns:xodm="http://www.corel.com/coreldraw/odm/2003" xmlns="http://www.w3.org/2000/svg" xmlns:xlink="http://www.w3.org/1999/xlink" x="0px" y="0px" width="192px" height="192px" viewBox="0 0 192 192" style="enable-background:new 0 0 192 192;" xml:space="preserve">
<style type="text/css">
	.st0{fill-rule:evenodd;clip-rule:evenodd;fill:#E11D48;}
	.st1{fill-rule:evenodd;clip-rule:evenodd;fill:#3B82F6;}
</style>
<path class="st0" d="M188.6,122c2.2-8.1,3.4-16.6,3.4-25.5c0-23.7-8.6-45.3-22.8-62.1L118.6,122H188.6z"/>
<path class="st1" d="M96,192.5c29.6,0,56.1-13.5,73.7-34.5h-54.4c-6.1,0-11.9-1.5-17.1-4.6c-5.1-2.8-9.2-7.1-12.3-12.4  c-3.2-5.4-4.7-11.2-4.7-17c0-5.8,1.5-11.6,4.7-17l0,0l55-95.4C127.5,4.5,112.2,0.5,96,0.5c-53,0-96,43-96,96S43,192.5,96,192.5  L96,192.5z"/>
</svg>